<mxfile host="app.diagrams.net" modified="2024-01-24T06:09:58.327Z" agent="Mozilla/5.0 (Windows NT 10.0; Win64; x64) AppleWebKit/537.36 (KHTML, like Gecko) Chrome/120.0.0.0 Safari/537.36 OPR/106.0.0.0" etag="9_Ejmve8iXrWmMCaP46U" version="22.1.21" type="github">
  <diagram name="Page-1" id="ill8SDHSSKFXlnQjD34v">
    <mxGraphModel dx="1139" dy="750" grid="1" gridSize="10" guides="1" tooltips="1" connect="1" arrows="1" fold="1" page="1" pageScale="1" pageWidth="850" pageHeight="1100" math="0" shadow="0">
      <root>
        <mxCell id="0" />
        <mxCell id="1" parent="0" />
        <mxCell id="-kPjgLYo0WIdV9sRpqmW-1" value="Employee" style="whiteSpace=wrap;html=1;align=center;" vertex="1" parent="1">
          <mxGeometry x="490" y="110" width="100" height="40" as="geometry" />
        </mxCell>
        <mxCell id="-kPjgLYo0WIdV9sRpqmW-3" value="Phone" style="ellipse;whiteSpace=wrap;html=1;align=center;fontStyle=0;" vertex="1" parent="1">
          <mxGeometry x="480" y="20" width="100" height="40" as="geometry" />
        </mxCell>
        <mxCell id="-kPjgLYo0WIdV9sRpqmW-4" value="Department" style="rounded=1;arcSize=10;whiteSpace=wrap;html=1;align=center;" vertex="1" parent="1">
          <mxGeometry x="1010" y="110" width="100" height="40" as="geometry" />
        </mxCell>
        <mxCell id="-kPjgLYo0WIdV9sRpqmW-6" value="SSN" style="ellipse;whiteSpace=wrap;html=1;align=center;fontStyle=4" vertex="1" parent="1">
          <mxGeometry x="470" y="190" width="100" height="40" as="geometry" />
        </mxCell>
        <mxCell id="-kPjgLYo0WIdV9sRpqmW-15" style="edgeStyle=orthogonalEdgeStyle;rounded=0;orthogonalLoop=1;jettySize=auto;html=1;entryX=1;entryY=0.5;entryDx=0;entryDy=0;" edge="1" parent="1" source="-kPjgLYo0WIdV9sRpqmW-16" target="-kPjgLYo0WIdV9sRpqmW-4">
          <mxGeometry relative="1" as="geometry">
            <mxPoint x="1200" y="70" as="targetPoint" />
          </mxGeometry>
        </mxCell>
        <mxCell id="-kPjgLYo0WIdV9sRpqmW-16" value="DeptNo" style="ellipse;whiteSpace=wrap;html=1;align=center;fontStyle=4;" vertex="1" parent="1">
          <mxGeometry x="1280" y="110" width="100" height="40" as="geometry" />
        </mxCell>
        <mxCell id="-kPjgLYo0WIdV9sRpqmW-17" style="edgeStyle=orthogonalEdgeStyle;rounded=0;orthogonalLoop=1;jettySize=auto;html=1;" edge="1" parent="1" source="-kPjgLYo0WIdV9sRpqmW-18" target="-kPjgLYo0WIdV9sRpqmW-4">
          <mxGeometry relative="1" as="geometry" />
        </mxCell>
        <mxCell id="-kPjgLYo0WIdV9sRpqmW-18" value="DeptName" style="ellipse;whiteSpace=wrap;html=1;align=center;" vertex="1" parent="1">
          <mxGeometry x="1230" y="10" width="100" height="40" as="geometry" />
        </mxCell>
        <mxCell id="-kPjgLYo0WIdV9sRpqmW-19" value="work_in" style="shape=rhombus;perimeter=rhombusPerimeter;whiteSpace=wrap;html=1;align=center;" vertex="1" parent="1">
          <mxGeometry x="760" y="100" width="120" height="60" as="geometry" />
        </mxCell>
        <mxCell id="-kPjgLYo0WIdV9sRpqmW-20" value="" style="edgeStyle=entityRelationEdgeStyle;fontSize=12;html=1;endArrow=ERmandOne;rounded=0;exitX=1;exitY=0.5;exitDx=0;exitDy=0;" edge="1" parent="1" source="-kPjgLYo0WIdV9sRpqmW-19" target="-kPjgLYo0WIdV9sRpqmW-4">
          <mxGeometry width="100" height="100" relative="1" as="geometry">
            <mxPoint x="880" y="160" as="sourcePoint" />
            <mxPoint x="980" y="60" as="targetPoint" />
          </mxGeometry>
        </mxCell>
        <mxCell id="-kPjgLYo0WIdV9sRpqmW-21" value="" style="edgeStyle=entityRelationEdgeStyle;fontSize=12;html=1;endArrow=ERoneToMany;rounded=0;exitX=0;exitY=0.5;exitDx=0;exitDy=0;entryX=1;entryY=0.5;entryDx=0;entryDy=0;" edge="1" parent="1" source="-kPjgLYo0WIdV9sRpqmW-19" target="-kPjgLYo0WIdV9sRpqmW-1">
          <mxGeometry width="100" height="100" relative="1" as="geometry">
            <mxPoint x="890" y="270" as="sourcePoint" />
            <mxPoint x="990" y="170" as="targetPoint" />
          </mxGeometry>
        </mxCell>
        <mxCell id="-kPjgLYo0WIdV9sRpqmW-22" style="edgeStyle=orthogonalEdgeStyle;rounded=0;orthogonalLoop=1;jettySize=auto;html=1;entryX=0.5;entryY=1;entryDx=0;entryDy=0;" edge="1" parent="1" source="-kPjgLYo0WIdV9sRpqmW-23" target="-kPjgLYo0WIdV9sRpqmW-19">
          <mxGeometry relative="1" as="geometry" />
        </mxCell>
        <mxCell id="-kPjgLYo0WIdV9sRpqmW-23" value="DeptNum" style="ellipse;whiteSpace=wrap;html=1;align=center;" vertex="1" parent="1">
          <mxGeometry x="930" y="220" width="100" height="40" as="geometry" />
        </mxCell>
        <mxCell id="-kPjgLYo0WIdV9sRpqmW-25" value="children of &lt;br/&gt;employees" style="shape=ext;margin=3;double=1;whiteSpace=wrap;html=1;align=center;" vertex="1" parent="1">
          <mxGeometry x="150" y="90" width="100" height="40" as="geometry" />
        </mxCell>
        <mxCell id="-kPjgLYo0WIdV9sRpqmW-8" value="Salary" style="ellipse;whiteSpace=wrap;html=1;align=center;" vertex="1" parent="1">
          <mxGeometry x="580" y="190" width="100" height="40" as="geometry" />
        </mxCell>
        <mxCell id="-kPjgLYo0WIdV9sRpqmW-31" value="Name" style="ellipse;whiteSpace=wrap;html=1;align=center;" vertex="1" parent="1">
          <mxGeometry x="180" y="30" width="100" height="40" as="geometry" />
        </mxCell>
        <mxCell id="-kPjgLYo0WIdV9sRpqmW-34" value="Age" style="ellipse;whiteSpace=wrap;html=1;align=center;" vertex="1" parent="1">
          <mxGeometry x="20" y="90" width="100" height="40" as="geometry" />
        </mxCell>
        <mxCell id="-kPjgLYo0WIdV9sRpqmW-39" value="" style="endArrow=none;html=1;rounded=0;exitX=0.5;exitY=1;exitDx=0;exitDy=0;entryX=0.153;entryY=-0.013;entryDx=0;entryDy=0;entryPerimeter=0;" edge="1" parent="1" source="-kPjgLYo0WIdV9sRpqmW-31" target="-kPjgLYo0WIdV9sRpqmW-25">
          <mxGeometry relative="1" as="geometry">
            <mxPoint x="230" y="130" as="sourcePoint" />
            <mxPoint x="390" y="130" as="targetPoint" />
          </mxGeometry>
        </mxCell>
        <mxCell id="-kPjgLYo0WIdV9sRpqmW-40" value="" style="endArrow=none;html=1;rounded=0;exitX=0.5;exitY=0;exitDx=0;exitDy=0;" edge="1" parent="1" source="-kPjgLYo0WIdV9sRpqmW-6" target="-kPjgLYo0WIdV9sRpqmW-1">
          <mxGeometry relative="1" as="geometry">
            <mxPoint x="496.47686020700394" y="13.678822577626306" as="sourcePoint" />
            <mxPoint x="850" y="-40" as="targetPoint" />
          </mxGeometry>
        </mxCell>
        <mxCell id="-kPjgLYo0WIdV9sRpqmW-41" value="" style="endArrow=none;html=1;rounded=0;exitX=0.5;exitY=1;exitDx=0;exitDy=0;entryX=0;entryY=1;entryDx=0;entryDy=0;" edge="1" parent="1" source="-kPjgLYo0WIdV9sRpqmW-34" target="-kPjgLYo0WIdV9sRpqmW-25">
          <mxGeometry relative="1" as="geometry">
            <mxPoint x="190" y="160" as="sourcePoint" />
            <mxPoint x="350" y="160" as="targetPoint" />
          </mxGeometry>
        </mxCell>
        <mxCell id="-kPjgLYo0WIdV9sRpqmW-43" value="Relationship" style="shape=rhombus;double=1;perimeter=rhombusPerimeter;whiteSpace=wrap;html=1;align=center;" vertex="1" parent="1">
          <mxGeometry x="300" y="80" width="120" height="60" as="geometry" />
        </mxCell>
        <mxCell id="-kPjgLYo0WIdV9sRpqmW-44" value="" style="endArrow=none;html=1;rounded=0;exitX=0.75;exitY=1;exitDx=0;exitDy=0;" edge="1" parent="1" source="-kPjgLYo0WIdV9sRpqmW-1" target="-kPjgLYo0WIdV9sRpqmW-8">
          <mxGeometry relative="1" as="geometry">
            <mxPoint x="670" y="280" as="sourcePoint" />
            <mxPoint x="640" y="210" as="targetPoint" />
          </mxGeometry>
        </mxCell>
      </root>
    </mxGraphModel>
  </diagram>
</mxfile>
